<mxfile host="Electron" agent="Mozilla/5.0 (Windows NT 10.0; Win64; x64) AppleWebKit/537.36 (KHTML, like Gecko) draw.io/26.0.4 Chrome/128.0.6613.186 Electron/32.2.5 Safari/537.36" version="26.0.4">
  <diagram id="R2lEEEUBdFMjLlhIrx00" name="Page-1">
    <mxGraphModel dx="614" dy="463" grid="1" gridSize="10" guides="1" tooltips="1" connect="1" arrows="1" fold="1" page="1" pageScale="1" pageWidth="850" pageHeight="1100" math="0" shadow="0" extFonts="Permanent Marker^https://fonts.googleapis.com/css?family=Permanent+Marker">
      <root>
        <mxCell id="0" />
        <mxCell id="1" parent="0" />
        <mxCell id="rFYcgC0ifJ-qKOonMQU6-1" value="用户" style="rounded=0;whiteSpace=wrap;html=1;" parent="1" vertex="1">
          <mxGeometry x="432.5" y="480" width="30" height="20" as="geometry" />
        </mxCell>
        <mxCell id="rFYcgC0ifJ-qKOonMQU6-2" value="商品" style="rounded=0;whiteSpace=wrap;html=1;" parent="1" vertex="1">
          <mxGeometry x="295" y="510" width="40" height="20" as="geometry" />
        </mxCell>
        <mxCell id="rFYcgC0ifJ-qKOonMQU6-23" value="订单" style="rounded=0;whiteSpace=wrap;html=1;" parent="1" vertex="1">
          <mxGeometry x="315" y="350" width="40" height="20" as="geometry" />
        </mxCell>
        <mxCell id="rFYcgC0ifJ-qKOonMQU6-24" value="分类" style="rounded=0;whiteSpace=wrap;html=1;" parent="1" vertex="1">
          <mxGeometry x="265" y="620" width="40" height="20" as="geometry" />
        </mxCell>
        <mxCell id="rFYcgC0ifJ-qKOonMQU6-25" value="地址" style="rounded=0;whiteSpace=wrap;html=1;" parent="1" vertex="1">
          <mxGeometry x="565" y="390" width="40" height="20" as="geometry" />
        </mxCell>
        <mxCell id="rFYcgC0ifJ-qKOonMQU6-26" value="购物车" style="rounded=0;whiteSpace=wrap;html=1;" parent="1" vertex="1">
          <mxGeometry x="587.5" y="430" width="40" height="20" as="geometry" />
        </mxCell>
        <mxCell id="rFYcgC0ifJ-qKOonMQU6-27" value="收藏" style="rounded=0;whiteSpace=wrap;html=1;" parent="1" vertex="1">
          <mxGeometry x="377.5" y="550" width="55" height="20" as="geometry" />
        </mxCell>
        <mxCell id="rFYcgC0ifJ-qKOonMQU6-29" value="搜索历史" style="rounded=0;whiteSpace=wrap;html=1;" parent="1" vertex="1">
          <mxGeometry x="582.5" y="490" width="50" height="20" as="geometry" />
        </mxCell>
        <mxCell id="rFYcgC0ifJ-qKOonMQU6-30" value="意见反馈" style="rounded=0;whiteSpace=wrap;html=1;" parent="1" vertex="1">
          <mxGeometry x="582.5" y="560" width="50" height="20" as="geometry" />
        </mxCell>
        <mxCell id="rFYcgC0ifJ-qKOonMQU6-32" value="浏览足迹" style="rounded=0;whiteSpace=wrap;html=1;" parent="1" vertex="1">
          <mxGeometry x="440" y="580" width="50" height="20" as="geometry" />
        </mxCell>
        <mxCell id="rFYcgC0ifJ-qKOonMQU6-34" value="优惠券" style="rounded=0;whiteSpace=wrap;html=1;" parent="1" vertex="1">
          <mxGeometry x="542.5" y="310" width="50" height="20" as="geometry" />
        </mxCell>
        <mxCell id="rFYcgC0ifJ-qKOonMQU6-35" value="售后" style="rounded=0;whiteSpace=wrap;html=1;" parent="1" vertex="1">
          <mxGeometry x="387.5" y="340" width="50" height="20" as="geometry" />
        </mxCell>
        <mxCell id="rFYcgC0ifJ-qKOonMQU6-36" value="评论" style="rounded=0;whiteSpace=wrap;html=1;" parent="1" vertex="1">
          <mxGeometry x="532.5" y="350" width="50" height="20" as="geometry" />
        </mxCell>
        <mxCell id="rFYcgC0ifJ-qKOonMQU6-37" value="品牌" style="rounded=0;whiteSpace=wrap;html=1;" parent="1" vertex="1">
          <mxGeometry x="190" y="580" width="40" height="20" as="geometry" />
        </mxCell>
        <mxCell id="rFYcgC0ifJ-qKOonMQU6-38" value="商品属性" style="rounded=0;whiteSpace=wrap;html=1;" parent="1" vertex="1">
          <mxGeometry x="150" y="530" width="50" height="20" as="geometry" />
        </mxCell>
        <mxCell id="rFYcgC0ifJ-qKOonMQU6-39" value="商品规格" style="rounded=0;whiteSpace=wrap;html=1;" parent="1" vertex="1">
          <mxGeometry x="160" y="430" width="50" height="20" as="geometry" />
        </mxCell>
        <mxCell id="rFYcgC0ifJ-qKOonMQU6-40" value="团购规则" style="rounded=0;whiteSpace=wrap;html=1;" parent="1" vertex="1">
          <mxGeometry x="215" y="400" width="50" height="20" as="geometry" />
        </mxCell>
        <mxCell id="rFYcgC0ifJ-qKOonMQU6-41" value="货品" style="rounded=0;whiteSpace=wrap;html=1;" parent="1" vertex="1">
          <mxGeometry x="130" y="490" width="50" height="20" as="geometry" />
        </mxCell>
        <mxCell id="YvlCz5XgxK24-ZPdVohA-18" value="下单" style="rhombus;whiteSpace=wrap;html=1;" parent="1" vertex="1">
          <mxGeometry x="358.75" y="410" width="40" height="20" as="geometry" />
        </mxCell>
        <mxCell id="KHBk9BbAcZX8hMuIXUuu-4" value="" style="endArrow=none;html=1;rounded=0;entryX=0.5;entryY=1;entryDx=0;entryDy=0;exitX=0.5;exitY=0;exitDx=0;exitDy=0;" parent="1" source="rFYcgC0ifJ-qKOonMQU6-1" target="YvlCz5XgxK24-ZPdVohA-18" edge="1">
          <mxGeometry width="50" height="50" relative="1" as="geometry">
            <mxPoint x="430" y="480" as="sourcePoint" />
            <mxPoint x="480" y="430" as="targetPoint" />
          </mxGeometry>
        </mxCell>
        <mxCell id="xW5rKiIzODdJxgL3xSRl-42" value="1" style="edgeLabel;html=1;align=center;verticalAlign=middle;resizable=0;points=[];" vertex="1" connectable="0" parent="KHBk9BbAcZX8hMuIXUuu-4">
          <mxGeometry x="0.0222" y="-1" relative="1" as="geometry">
            <mxPoint as="offset" />
          </mxGeometry>
        </mxCell>
        <mxCell id="KHBk9BbAcZX8hMuIXUuu-5" value="" style="endArrow=none;html=1;rounded=0;entryX=0.75;entryY=1;entryDx=0;entryDy=0;exitX=0.5;exitY=0;exitDx=0;exitDy=0;" parent="1" source="YvlCz5XgxK24-ZPdVohA-18" target="rFYcgC0ifJ-qKOonMQU6-23" edge="1">
          <mxGeometry width="50" height="50" relative="1" as="geometry">
            <mxPoint x="455" y="480" as="sourcePoint" />
            <mxPoint x="440" y="440" as="targetPoint" />
          </mxGeometry>
        </mxCell>
        <mxCell id="KHBk9BbAcZX8hMuIXUuu-7" value="联系售后" style="rhombus;whiteSpace=wrap;html=1;" parent="1" vertex="1">
          <mxGeometry x="385" y="390" width="55" height="20" as="geometry" />
        </mxCell>
        <mxCell id="KHBk9BbAcZX8hMuIXUuu-8" value="" style="endArrow=none;html=1;rounded=0;entryX=0.5;entryY=1;entryDx=0;entryDy=0;exitX=0.5;exitY=0;exitDx=0;exitDy=0;" parent="1" source="rFYcgC0ifJ-qKOonMQU6-1" target="KHBk9BbAcZX8hMuIXUuu-7" edge="1">
          <mxGeometry width="50" height="50" relative="1" as="geometry">
            <mxPoint x="430" y="480" as="sourcePoint" />
            <mxPoint x="480" y="430" as="targetPoint" />
          </mxGeometry>
        </mxCell>
        <mxCell id="xW5rKiIzODdJxgL3xSRl-41" value="1" style="edgeLabel;html=1;align=center;verticalAlign=middle;resizable=0;points=[];" vertex="1" connectable="0" parent="KHBk9BbAcZX8hMuIXUuu-8">
          <mxGeometry x="0.1422" relative="1" as="geometry">
            <mxPoint as="offset" />
          </mxGeometry>
        </mxCell>
        <mxCell id="xW5rKiIzODdJxgL3xSRl-2" value="" style="endArrow=none;html=1;rounded=0;entryX=0.5;entryY=1;entryDx=0;entryDy=0;exitX=0.5;exitY=0;exitDx=0;exitDy=0;" edge="1" parent="1" source="KHBk9BbAcZX8hMuIXUuu-7" target="rFYcgC0ifJ-qKOonMQU6-35">
          <mxGeometry width="50" height="50" relative="1" as="geometry">
            <mxPoint x="410" y="540" as="sourcePoint" />
            <mxPoint x="460" y="490" as="targetPoint" />
          </mxGeometry>
        </mxCell>
        <mxCell id="xW5rKiIzODdJxgL3xSRl-3" value="位于" style="rhombus;whiteSpace=wrap;html=1;" vertex="1" parent="1">
          <mxGeometry x="495" y="410" width="55" height="20" as="geometry" />
        </mxCell>
        <mxCell id="xW5rKiIzODdJxgL3xSRl-4" value="创建" style="rhombus;whiteSpace=wrap;html=1;" vertex="1" parent="1">
          <mxGeometry x="510" y="440" width="55" height="20" as="geometry" />
        </mxCell>
        <mxCell id="xW5rKiIzODdJxgL3xSRl-5" value="" style="endArrow=none;html=1;rounded=0;entryX=0;entryY=0.5;entryDx=0;entryDy=0;exitX=1;exitY=0;exitDx=0;exitDy=0;" edge="1" parent="1" source="rFYcgC0ifJ-qKOonMQU6-1" target="xW5rKiIzODdJxgL3xSRl-4">
          <mxGeometry width="50" height="50" relative="1" as="geometry">
            <mxPoint x="410" y="540" as="sourcePoint" />
            <mxPoint x="460" y="490" as="targetPoint" />
          </mxGeometry>
        </mxCell>
        <mxCell id="xW5rKiIzODdJxgL3xSRl-38" value="1" style="edgeLabel;html=1;align=center;verticalAlign=middle;resizable=0;points=[];" vertex="1" connectable="0" parent="xW5rKiIzODdJxgL3xSRl-5">
          <mxGeometry x="0.0105" y="-2" relative="1" as="geometry">
            <mxPoint as="offset" />
          </mxGeometry>
        </mxCell>
        <mxCell id="xW5rKiIzODdJxgL3xSRl-6" value="" style="endArrow=none;html=1;rounded=0;entryX=0;entryY=1;entryDx=0;entryDy=0;exitX=0.75;exitY=0;exitDx=0;exitDy=0;" edge="1" parent="1" source="rFYcgC0ifJ-qKOonMQU6-1" target="xW5rKiIzODdJxgL3xSRl-3">
          <mxGeometry width="50" height="50" relative="1" as="geometry">
            <mxPoint x="470" y="480" as="sourcePoint" />
            <mxPoint x="528" y="440" as="targetPoint" />
          </mxGeometry>
        </mxCell>
        <mxCell id="xW5rKiIzODdJxgL3xSRl-39" value="1" style="edgeLabel;html=1;align=center;verticalAlign=middle;resizable=0;points=[];" vertex="1" connectable="0" parent="xW5rKiIzODdJxgL3xSRl-6">
          <mxGeometry x="-0.0157" y="1" relative="1" as="geometry">
            <mxPoint as="offset" />
          </mxGeometry>
        </mxCell>
        <mxCell id="xW5rKiIzODdJxgL3xSRl-7" value="" style="endArrow=none;html=1;rounded=0;entryX=0;entryY=0.5;entryDx=0;entryDy=0;exitX=1;exitY=0;exitDx=0;exitDy=0;" edge="1" parent="1" source="xW5rKiIzODdJxgL3xSRl-4" target="rFYcgC0ifJ-qKOonMQU6-26">
          <mxGeometry width="50" height="50" relative="1" as="geometry">
            <mxPoint x="410" y="540" as="sourcePoint" />
            <mxPoint x="460" y="490" as="targetPoint" />
          </mxGeometry>
        </mxCell>
        <mxCell id="xW5rKiIzODdJxgL3xSRl-8" value="" style="endArrow=none;html=1;rounded=0;entryX=0.25;entryY=1;entryDx=0;entryDy=0;exitX=1;exitY=0;exitDx=0;exitDy=0;" edge="1" parent="1" source="xW5rKiIzODdJxgL3xSRl-3" target="rFYcgC0ifJ-qKOonMQU6-25">
          <mxGeometry width="50" height="50" relative="1" as="geometry">
            <mxPoint x="583" y="440" as="sourcePoint" />
            <mxPoint x="590" y="420" as="targetPoint" />
          </mxGeometry>
        </mxCell>
        <mxCell id="xW5rKiIzODdJxgL3xSRl-9" value="创建" style="rhombus;whiteSpace=wrap;html=1;" vertex="1" parent="1">
          <mxGeometry x="390" y="510" width="55" height="20" as="geometry" />
        </mxCell>
        <mxCell id="xW5rKiIzODdJxgL3xSRl-10" value="" style="endArrow=none;html=1;rounded=0;entryX=0.5;entryY=0;entryDx=0;entryDy=0;exitX=0.5;exitY=1;exitDx=0;exitDy=0;" edge="1" parent="1" source="xW5rKiIzODdJxgL3xSRl-9" target="rFYcgC0ifJ-qKOonMQU6-27">
          <mxGeometry width="50" height="50" relative="1" as="geometry">
            <mxPoint x="583" y="440" as="sourcePoint" />
            <mxPoint x="590" y="420" as="targetPoint" />
          </mxGeometry>
        </mxCell>
        <mxCell id="xW5rKiIzODdJxgL3xSRl-11" value="" style="endArrow=none;html=1;rounded=0;entryX=1;entryY=0;entryDx=0;entryDy=0;exitX=0;exitY=1;exitDx=0;exitDy=0;" edge="1" parent="1" source="rFYcgC0ifJ-qKOonMQU6-1" target="xW5rKiIzODdJxgL3xSRl-9">
          <mxGeometry width="50" height="50" relative="1" as="geometry">
            <mxPoint x="593" y="450" as="sourcePoint" />
            <mxPoint x="600" y="430" as="targetPoint" />
          </mxGeometry>
        </mxCell>
        <mxCell id="xW5rKiIzODdJxgL3xSRl-13" value="拥有" style="rhombus;whiteSpace=wrap;html=1;" vertex="1" parent="1">
          <mxGeometry x="505" y="480" width="55" height="20" as="geometry" />
        </mxCell>
        <mxCell id="xW5rKiIzODdJxgL3xSRl-14" value="" style="endArrow=none;html=1;rounded=0;entryX=0;entryY=0.5;entryDx=0;entryDy=0;exitX=1;exitY=0.75;exitDx=0;exitDy=0;" edge="1" parent="1" source="rFYcgC0ifJ-qKOonMQU6-1" target="xW5rKiIzODdJxgL3xSRl-13">
          <mxGeometry width="50" height="50" relative="1" as="geometry">
            <mxPoint x="460" y="480" as="sourcePoint" />
            <mxPoint x="545" y="480" as="targetPoint" />
          </mxGeometry>
        </mxCell>
        <mxCell id="xW5rKiIzODdJxgL3xSRl-35" value="1" style="edgeLabel;html=1;align=center;verticalAlign=middle;resizable=0;points=[];" vertex="1" connectable="0" parent="xW5rKiIzODdJxgL3xSRl-14">
          <mxGeometry x="0.0913" y="1" relative="1" as="geometry">
            <mxPoint as="offset" />
          </mxGeometry>
        </mxCell>
        <mxCell id="xW5rKiIzODdJxgL3xSRl-15" value="" style="endArrow=none;html=1;rounded=0;entryX=0;entryY=0.5;entryDx=0;entryDy=0;exitX=1;exitY=1;exitDx=0;exitDy=0;" edge="1" parent="1" source="xW5rKiIzODdJxgL3xSRl-13" target="rFYcgC0ifJ-qKOonMQU6-29">
          <mxGeometry width="50" height="50" relative="1" as="geometry">
            <mxPoint x="470" y="490" as="sourcePoint" />
            <mxPoint x="550" y="510" as="targetPoint" />
          </mxGeometry>
        </mxCell>
        <mxCell id="xW5rKiIzODdJxgL3xSRl-18" value="提出" style="rhombus;whiteSpace=wrap;html=1;" vertex="1" parent="1">
          <mxGeometry x="517.5" y="540" width="55" height="20" as="geometry" />
        </mxCell>
        <mxCell id="xW5rKiIzODdJxgL3xSRl-19" value="" style="endArrow=none;html=1;rounded=0;entryX=0;entryY=0.5;entryDx=0;entryDy=0;exitX=1;exitY=1;exitDx=0;exitDy=0;" edge="1" parent="1" source="rFYcgC0ifJ-qKOonMQU6-1" target="xW5rKiIzODdJxgL3xSRl-18">
          <mxGeometry width="50" height="50" relative="1" as="geometry">
            <mxPoint x="470" y="500" as="sourcePoint" />
            <mxPoint x="550" y="510" as="targetPoint" />
          </mxGeometry>
        </mxCell>
        <mxCell id="xW5rKiIzODdJxgL3xSRl-34" value="1" style="edgeLabel;html=1;align=center;verticalAlign=middle;resizable=0;points=[];" vertex="1" connectable="0" parent="xW5rKiIzODdJxgL3xSRl-19">
          <mxGeometry x="0.1082" y="2" relative="1" as="geometry">
            <mxPoint as="offset" />
          </mxGeometry>
        </mxCell>
        <mxCell id="xW5rKiIzODdJxgL3xSRl-20" value="" style="endArrow=none;html=1;rounded=0;entryX=0;entryY=0.5;entryDx=0;entryDy=0;exitX=1;exitY=1;exitDx=0;exitDy=0;" edge="1" parent="1" source="xW5rKiIzODdJxgL3xSRl-18" target="rFYcgC0ifJ-qKOonMQU6-30">
          <mxGeometry width="50" height="50" relative="1" as="geometry">
            <mxPoint x="470" y="505" as="sourcePoint" />
            <mxPoint x="543" y="540" as="targetPoint" />
          </mxGeometry>
        </mxCell>
        <mxCell id="xW5rKiIzODdJxgL3xSRl-22" value="产生" style="rhombus;whiteSpace=wrap;html=1;" vertex="1" parent="1">
          <mxGeometry x="440" y="550" width="55" height="20" as="geometry" />
        </mxCell>
        <mxCell id="xW5rKiIzODdJxgL3xSRl-23" value="" style="endArrow=none;html=1;rounded=0;exitX=0.5;exitY=1;exitDx=0;exitDy=0;" edge="1" parent="1" source="rFYcgC0ifJ-qKOonMQU6-1" target="xW5rKiIzODdJxgL3xSRl-22">
          <mxGeometry width="50" height="50" relative="1" as="geometry">
            <mxPoint x="470" y="505" as="sourcePoint" />
            <mxPoint x="543" y="540" as="targetPoint" />
          </mxGeometry>
        </mxCell>
        <mxCell id="xW5rKiIzODdJxgL3xSRl-33" value="1" style="edgeLabel;html=1;align=center;verticalAlign=middle;resizable=0;points=[];" vertex="1" connectable="0" parent="xW5rKiIzODdJxgL3xSRl-23">
          <mxGeometry x="-0.0491" y="-1" relative="1" as="geometry">
            <mxPoint as="offset" />
          </mxGeometry>
        </mxCell>
        <mxCell id="xW5rKiIzODdJxgL3xSRl-24" value="" style="endArrow=none;html=1;rounded=0;exitX=0.5;exitY=1;exitDx=0;exitDy=0;entryX=0.5;entryY=0;entryDx=0;entryDy=0;" edge="1" parent="1" source="xW5rKiIzODdJxgL3xSRl-22" target="rFYcgC0ifJ-qKOonMQU6-32">
          <mxGeometry width="50" height="50" relative="1" as="geometry">
            <mxPoint x="470" y="510" as="sourcePoint" />
            <mxPoint x="547" y="573" as="targetPoint" />
          </mxGeometry>
        </mxCell>
        <mxCell id="xW5rKiIzODdJxgL3xSRl-26" value="使用" style="rhombus;whiteSpace=wrap;html=1;" vertex="1" parent="1">
          <mxGeometry x="432.5" y="400" width="55" height="20" as="geometry" />
        </mxCell>
        <mxCell id="xW5rKiIzODdJxgL3xSRl-27" value="" style="endArrow=none;html=1;rounded=0;entryX=0.25;entryY=1;entryDx=0;entryDy=0;exitX=0.5;exitY=0;exitDx=0;exitDy=0;" edge="1" parent="1" source="xW5rKiIzODdJxgL3xSRl-26" target="xW5rKiIzODdJxgL3xSRl-130">
          <mxGeometry width="50" height="50" relative="1" as="geometry">
            <mxPoint x="605" y="470" as="sourcePoint" />
            <mxPoint x="640" y="460" as="targetPoint" />
          </mxGeometry>
        </mxCell>
        <mxCell id="xW5rKiIzODdJxgL3xSRl-28" value="" style="endArrow=none;html=1;rounded=0;entryX=0.5;entryY=1;entryDx=0;entryDy=0;exitX=0.5;exitY=0;exitDx=0;exitDy=0;" edge="1" parent="1" source="rFYcgC0ifJ-qKOonMQU6-1" target="xW5rKiIzODdJxgL3xSRl-26">
          <mxGeometry width="50" height="50" relative="1" as="geometry">
            <mxPoint x="590" y="490" as="sourcePoint" />
            <mxPoint x="640" y="490" as="targetPoint" />
          </mxGeometry>
        </mxCell>
        <mxCell id="xW5rKiIzODdJxgL3xSRl-173" value="1" style="edgeLabel;html=1;align=center;verticalAlign=middle;resizable=0;points=[];" vertex="1" connectable="0" parent="xW5rKiIzODdJxgL3xSRl-28">
          <mxGeometry x="0.0681" y="1" relative="1" as="geometry">
            <mxPoint as="offset" />
          </mxGeometry>
        </mxCell>
        <mxCell id="xW5rKiIzODdJxgL3xSRl-29" value="发表" style="rhombus;whiteSpace=wrap;html=1;" vertex="1" parent="1">
          <mxGeometry x="477.5" y="380" width="55" height="20" as="geometry" />
        </mxCell>
        <mxCell id="xW5rKiIzODdJxgL3xSRl-30" value="" style="endArrow=none;html=1;rounded=0;entryX=0.5;entryY=1;entryDx=0;entryDy=0;exitX=0.75;exitY=0;exitDx=0;exitDy=0;" edge="1" parent="1" source="rFYcgC0ifJ-qKOonMQU6-1" target="xW5rKiIzODdJxgL3xSRl-29">
          <mxGeometry width="50" height="50" relative="1" as="geometry">
            <mxPoint x="420" y="480" as="sourcePoint" />
            <mxPoint x="514" y="425" as="targetPoint" />
          </mxGeometry>
        </mxCell>
        <mxCell id="xW5rKiIzODdJxgL3xSRl-40" value="1" style="edgeLabel;html=1;align=center;verticalAlign=middle;resizable=0;points=[];" vertex="1" connectable="0" parent="xW5rKiIzODdJxgL3xSRl-30">
          <mxGeometry x="0.0346" y="2" relative="1" as="geometry">
            <mxPoint as="offset" />
          </mxGeometry>
        </mxCell>
        <mxCell id="xW5rKiIzODdJxgL3xSRl-31" value="" style="endArrow=none;html=1;rounded=0;entryX=0.25;entryY=1;entryDx=0;entryDy=0;exitX=1;exitY=0;exitDx=0;exitDy=0;" edge="1" parent="1" source="xW5rKiIzODdJxgL3xSRl-29" target="rFYcgC0ifJ-qKOonMQU6-36">
          <mxGeometry width="50" height="50" relative="1" as="geometry">
            <mxPoint x="455" y="490" as="sourcePoint" />
            <mxPoint x="500" y="410" as="targetPoint" />
          </mxGeometry>
        </mxCell>
        <mxCell id="xW5rKiIzODdJxgL3xSRl-32" value="说明：不注明的是多" style="rounded=0;whiteSpace=wrap;html=1;" vertex="1" parent="1">
          <mxGeometry x="577.5" y="665" width="140" height="30" as="geometry" />
        </mxCell>
        <mxCell id="xW5rKiIzODdJxgL3xSRl-43" value="属于" style="rhombus;whiteSpace=wrap;html=1;" vertex="1" parent="1">
          <mxGeometry x="265" y="580" width="55" height="20" as="geometry" />
        </mxCell>
        <mxCell id="xW5rKiIzODdJxgL3xSRl-44" value="属于" style="rhombus;whiteSpace=wrap;html=1;" vertex="1" parent="1">
          <mxGeometry x="230" y="560" width="55" height="20" as="geometry" />
        </mxCell>
        <mxCell id="xW5rKiIzODdJxgL3xSRl-45" value="拥有" style="rhombus;whiteSpace=wrap;html=1;" vertex="1" parent="1">
          <mxGeometry x="210" y="530" width="55" height="20" as="geometry" />
        </mxCell>
        <mxCell id="xW5rKiIzODdJxgL3xSRl-51" value="生成" style="rhombus;whiteSpace=wrap;html=1;" vertex="1" parent="1">
          <mxGeometry x="190" y="500" width="55" height="20" as="geometry" />
        </mxCell>
        <mxCell id="xW5rKiIzODdJxgL3xSRl-52" value="拥有" style="rhombus;whiteSpace=wrap;html=1;" vertex="1" parent="1">
          <mxGeometry x="197.5" y="470" width="55" height="20" as="geometry" />
        </mxCell>
        <mxCell id="xW5rKiIzODdJxgL3xSRl-53" value="拥有" style="rhombus;whiteSpace=wrap;html=1;" vertex="1" parent="1">
          <mxGeometry x="250" y="440" width="55" height="20" as="geometry" />
        </mxCell>
        <mxCell id="xW5rKiIzODdJxgL3xSRl-54" value="" style="endArrow=none;html=1;rounded=0;entryX=0.5;entryY=1;entryDx=0;entryDy=0;exitX=0.5;exitY=0;exitDx=0;exitDy=0;" edge="1" parent="1" source="xW5rKiIzODdJxgL3xSRl-53" target="rFYcgC0ifJ-qKOonMQU6-40">
          <mxGeometry width="50" height="50" relative="1" as="geometry">
            <mxPoint x="410" y="620" as="sourcePoint" />
            <mxPoint x="460" y="570" as="targetPoint" />
          </mxGeometry>
        </mxCell>
        <mxCell id="xW5rKiIzODdJxgL3xSRl-55" value="" style="endArrow=none;html=1;rounded=0;entryX=0.5;entryY=1;entryDx=0;entryDy=0;exitX=0.5;exitY=0;exitDx=0;exitDy=0;" edge="1" parent="1" source="rFYcgC0ifJ-qKOonMQU6-2" target="xW5rKiIzODdJxgL3xSRl-53">
          <mxGeometry width="50" height="50" relative="1" as="geometry">
            <mxPoint x="275" y="460" as="sourcePoint" />
            <mxPoint x="265" y="430" as="targetPoint" />
          </mxGeometry>
        </mxCell>
        <mxCell id="xW5rKiIzODdJxgL3xSRl-82" value="1" style="edgeLabel;html=1;align=center;verticalAlign=middle;resizable=0;points=[];" vertex="1" connectable="0" parent="xW5rKiIzODdJxgL3xSRl-55">
          <mxGeometry x="0.0133" y="1" relative="1" as="geometry">
            <mxPoint as="offset" />
          </mxGeometry>
        </mxCell>
        <mxCell id="xW5rKiIzODdJxgL3xSRl-60" value="" style="endArrow=none;html=1;rounded=0;entryX=0.5;entryY=0;entryDx=0;entryDy=0;exitX=0.5;exitY=1;exitDx=0;exitDy=0;" edge="1" parent="1" source="rFYcgC0ifJ-qKOonMQU6-2" target="xW5rKiIzODdJxgL3xSRl-43">
          <mxGeometry width="50" height="50" relative="1" as="geometry">
            <mxPoint x="313" y="535" as="sourcePoint" />
            <mxPoint x="332" y="553" as="targetPoint" />
          </mxGeometry>
        </mxCell>
        <mxCell id="xW5rKiIzODdJxgL3xSRl-84" value="1" style="edgeLabel;html=1;align=center;verticalAlign=middle;resizable=0;points=[];" vertex="1" connectable="0" parent="xW5rKiIzODdJxgL3xSRl-60">
          <mxGeometry x="0.2014" y="1" relative="1" as="geometry">
            <mxPoint as="offset" />
          </mxGeometry>
        </mxCell>
        <mxCell id="xW5rKiIzODdJxgL3xSRl-61" value="" style="endArrow=none;html=1;rounded=0;entryX=1;entryY=0;entryDx=0;entryDy=0;exitX=0.5;exitY=1;exitDx=0;exitDy=0;" edge="1" parent="1" source="rFYcgC0ifJ-qKOonMQU6-2" target="xW5rKiIzODdJxgL3xSRl-44">
          <mxGeometry width="50" height="50" relative="1" as="geometry">
            <mxPoint x="293" y="530" as="sourcePoint" />
            <mxPoint x="303" y="590" as="targetPoint" />
          </mxGeometry>
        </mxCell>
        <mxCell id="xW5rKiIzODdJxgL3xSRl-85" value="1" style="edgeLabel;html=1;align=center;verticalAlign=middle;resizable=0;points=[];" vertex="1" connectable="0" parent="xW5rKiIzODdJxgL3xSRl-61">
          <mxGeometry x="0.2641" relative="1" as="geometry">
            <mxPoint as="offset" />
          </mxGeometry>
        </mxCell>
        <mxCell id="xW5rKiIzODdJxgL3xSRl-62" value="" style="endArrow=none;html=1;rounded=0;entryX=1;entryY=0.5;entryDx=0;entryDy=0;exitX=0.5;exitY=1;exitDx=0;exitDy=0;" edge="1" parent="1" source="rFYcgC0ifJ-qKOonMQU6-2" target="xW5rKiIzODdJxgL3xSRl-45">
          <mxGeometry width="50" height="50" relative="1" as="geometry">
            <mxPoint x="293" y="530" as="sourcePoint" />
            <mxPoint x="281" y="575" as="targetPoint" />
          </mxGeometry>
        </mxCell>
        <mxCell id="xW5rKiIzODdJxgL3xSRl-78" value="1" style="edgeLabel;html=1;align=center;verticalAlign=middle;resizable=0;points=[];" vertex="1" connectable="0" parent="xW5rKiIzODdJxgL3xSRl-62">
          <mxGeometry x="0.0904" y="-1" relative="1" as="geometry">
            <mxPoint as="offset" />
          </mxGeometry>
        </mxCell>
        <mxCell id="xW5rKiIzODdJxgL3xSRl-63" value="" style="endArrow=none;html=1;rounded=0;entryX=1;entryY=0.5;entryDx=0;entryDy=0;exitX=0;exitY=0.5;exitDx=0;exitDy=0;" edge="1" parent="1" source="rFYcgC0ifJ-qKOonMQU6-2" target="xW5rKiIzODdJxgL3xSRl-51">
          <mxGeometry width="50" height="50" relative="1" as="geometry">
            <mxPoint x="283" y="530" as="sourcePoint" />
            <mxPoint x="275" y="550" as="targetPoint" />
          </mxGeometry>
        </mxCell>
        <mxCell id="xW5rKiIzODdJxgL3xSRl-80" value="1" style="edgeLabel;html=1;align=center;verticalAlign=middle;resizable=0;points=[];" vertex="1" connectable="0" parent="xW5rKiIzODdJxgL3xSRl-63">
          <mxGeometry x="0.3778" y="1" relative="1" as="geometry">
            <mxPoint as="offset" />
          </mxGeometry>
        </mxCell>
        <mxCell id="xW5rKiIzODdJxgL3xSRl-64" value="" style="endArrow=none;html=1;rounded=0;entryX=0.25;entryY=0;entryDx=0;entryDy=0;exitX=1;exitY=1;exitDx=0;exitDy=0;" edge="1" parent="1" source="xW5rKiIzODdJxgL3xSRl-52" target="rFYcgC0ifJ-qKOonMQU6-2">
          <mxGeometry width="50" height="50" relative="1" as="geometry">
            <mxPoint x="263" y="520" as="sourcePoint" />
            <mxPoint x="255" y="520" as="targetPoint" />
          </mxGeometry>
        </mxCell>
        <mxCell id="xW5rKiIzODdJxgL3xSRl-81" value="1" style="edgeLabel;html=1;align=center;verticalAlign=middle;resizable=0;points=[];" vertex="1" connectable="0" parent="xW5rKiIzODdJxgL3xSRl-64">
          <mxGeometry x="-0.0071" y="-1" relative="1" as="geometry">
            <mxPoint as="offset" />
          </mxGeometry>
        </mxCell>
        <mxCell id="xW5rKiIzODdJxgL3xSRl-65" value="" style="endArrow=none;html=1;rounded=0;entryX=0.5;entryY=0;entryDx=0;entryDy=0;exitX=0.5;exitY=1;exitDx=0;exitDy=0;" edge="1" parent="1" source="xW5rKiIzODdJxgL3xSRl-43" target="rFYcgC0ifJ-qKOonMQU6-24">
          <mxGeometry width="50" height="50" relative="1" as="geometry">
            <mxPoint x="293" y="530" as="sourcePoint" />
            <mxPoint x="303" y="590" as="targetPoint" />
          </mxGeometry>
        </mxCell>
        <mxCell id="xW5rKiIzODdJxgL3xSRl-66" value="" style="endArrow=none;html=1;rounded=0;entryX=1;entryY=0.5;entryDx=0;entryDy=0;exitX=0;exitY=1;exitDx=0;exitDy=0;" edge="1" parent="1" source="xW5rKiIzODdJxgL3xSRl-44" target="rFYcgC0ifJ-qKOonMQU6-37">
          <mxGeometry width="50" height="50" relative="1" as="geometry">
            <mxPoint x="303" y="610" as="sourcePoint" />
            <mxPoint x="300" y="620" as="targetPoint" />
          </mxGeometry>
        </mxCell>
        <mxCell id="xW5rKiIzODdJxgL3xSRl-67" value="" style="endArrow=none;html=1;rounded=0;entryX=1;entryY=0.5;entryDx=0;entryDy=0;exitX=0;exitY=0.5;exitDx=0;exitDy=0;" edge="1" parent="1" source="xW5rKiIzODdJxgL3xSRl-45" target="rFYcgC0ifJ-qKOonMQU6-38">
          <mxGeometry width="50" height="50" relative="1" as="geometry">
            <mxPoint x="254" y="585" as="sourcePoint" />
            <mxPoint x="240" y="600" as="targetPoint" />
          </mxGeometry>
        </mxCell>
        <mxCell id="xW5rKiIzODdJxgL3xSRl-68" value="" style="endArrow=none;html=1;rounded=0;entryX=1;entryY=0.5;entryDx=0;entryDy=0;exitX=0;exitY=0;exitDx=0;exitDy=0;" edge="1" parent="1" source="xW5rKiIzODdJxgL3xSRl-51" target="rFYcgC0ifJ-qKOonMQU6-41">
          <mxGeometry width="50" height="50" relative="1" as="geometry">
            <mxPoint x="220" y="550" as="sourcePoint" />
            <mxPoint x="210" y="550" as="targetPoint" />
          </mxGeometry>
        </mxCell>
        <mxCell id="xW5rKiIzODdJxgL3xSRl-69" value="" style="endArrow=none;html=1;rounded=0;entryX=0.75;entryY=1;entryDx=0;entryDy=0;exitX=0;exitY=0;exitDx=0;exitDy=0;" edge="1" parent="1" source="xW5rKiIzODdJxgL3xSRl-52" target="rFYcgC0ifJ-qKOonMQU6-39">
          <mxGeometry width="50" height="50" relative="1" as="geometry">
            <mxPoint x="214" y="515" as="sourcePoint" />
            <mxPoint x="190" y="510" as="targetPoint" />
          </mxGeometry>
        </mxCell>
        <mxCell id="xW5rKiIzODdJxgL3xSRl-87" value="声请" style="rhombus;whiteSpace=wrap;html=1;" vertex="1" parent="1">
          <mxGeometry x="373.75" y="310" width="40" height="20" as="geometry" />
        </mxCell>
        <mxCell id="xW5rKiIzODdJxgL3xSRl-88" value="" style="endArrow=none;html=1;rounded=0;entryX=0;entryY=1;entryDx=0;entryDy=0;exitX=1;exitY=0;exitDx=0;exitDy=0;" edge="1" parent="1" source="rFYcgC0ifJ-qKOonMQU6-23" target="xW5rKiIzODdJxgL3xSRl-87">
          <mxGeometry width="50" height="50" relative="1" as="geometry">
            <mxPoint x="410" y="540" as="sourcePoint" />
            <mxPoint x="460" y="490" as="targetPoint" />
          </mxGeometry>
        </mxCell>
        <mxCell id="xW5rKiIzODdJxgL3xSRl-93" value="1" style="edgeLabel;html=1;align=center;verticalAlign=middle;resizable=0;points=[];" vertex="1" connectable="0" parent="xW5rKiIzODdJxgL3xSRl-88">
          <mxGeometry x="0.0423" y="1" relative="1" as="geometry">
            <mxPoint as="offset" />
          </mxGeometry>
        </mxCell>
        <mxCell id="xW5rKiIzODdJxgL3xSRl-90" value="" style="endArrow=none;html=1;rounded=0;entryX=1;entryY=1;entryDx=0;entryDy=0;exitX=0.5;exitY=0;exitDx=0;exitDy=0;" edge="1" parent="1" source="rFYcgC0ifJ-qKOonMQU6-35" target="xW5rKiIzODdJxgL3xSRl-87">
          <mxGeometry width="50" height="50" relative="1" as="geometry">
            <mxPoint x="400" y="410" as="sourcePoint" />
            <mxPoint x="380" y="380" as="targetPoint" />
          </mxGeometry>
        </mxCell>
        <mxCell id="xW5rKiIzODdJxgL3xSRl-92" value="生成" style="rhombus;whiteSpace=wrap;html=1;" vertex="1" parent="1">
          <mxGeometry x="300" y="460" width="55" height="20" as="geometry" />
        </mxCell>
        <mxCell id="xW5rKiIzODdJxgL3xSRl-94" value="" style="endArrow=none;html=1;rounded=0;entryX=0.5;entryY=1;entryDx=0;entryDy=0;exitX=0.5;exitY=0;exitDx=0;exitDy=0;" edge="1" parent="1" source="rFYcgC0ifJ-qKOonMQU6-2" target="xW5rKiIzODdJxgL3xSRl-92">
          <mxGeometry width="50" height="50" relative="1" as="geometry">
            <mxPoint x="410" y="540" as="sourcePoint" />
            <mxPoint x="460" y="490" as="targetPoint" />
          </mxGeometry>
        </mxCell>
        <mxCell id="xW5rKiIzODdJxgL3xSRl-96" value="1" style="edgeLabel;html=1;align=center;verticalAlign=middle;resizable=0;points=[];" vertex="1" connectable="0" parent="xW5rKiIzODdJxgL3xSRl-94">
          <mxGeometry x="0.4184" y="1" relative="1" as="geometry">
            <mxPoint as="offset" />
          </mxGeometry>
        </mxCell>
        <mxCell id="xW5rKiIzODdJxgL3xSRl-95" value="" style="endArrow=none;html=1;rounded=0;entryX=0.5;entryY=1;entryDx=0;entryDy=0;exitX=0.5;exitY=0;exitDx=0;exitDy=0;" edge="1" parent="1" source="xW5rKiIzODdJxgL3xSRl-164" target="rFYcgC0ifJ-qKOonMQU6-23">
          <mxGeometry width="50" height="50" relative="1" as="geometry">
            <mxPoint x="320" y="390" as="sourcePoint" />
            <mxPoint x="309" y="465" as="targetPoint" />
          </mxGeometry>
        </mxCell>
        <mxCell id="xW5rKiIzODdJxgL3xSRl-169" value="1" style="edgeLabel;html=1;align=center;verticalAlign=middle;resizable=0;points=[];" vertex="1" connectable="0" parent="xW5rKiIzODdJxgL3xSRl-95">
          <mxGeometry x="-0.0933" y="-1" relative="1" as="geometry">
            <mxPoint as="offset" />
          </mxGeometry>
        </mxCell>
        <mxCell id="xW5rKiIzODdJxgL3xSRl-97" value="主题" style="rounded=0;whiteSpace=wrap;html=1;" vertex="1" parent="1">
          <mxGeometry x="492.5" y="600" width="50" height="20" as="geometry" />
        </mxCell>
        <mxCell id="xW5rKiIzODdJxgL3xSRl-98" value="关注" style="rhombus;whiteSpace=wrap;html=1;" vertex="1" parent="1">
          <mxGeometry x="490" y="560" width="55" height="20" as="geometry" />
        </mxCell>
        <mxCell id="xW5rKiIzODdJxgL3xSRl-99" value="" style="endArrow=none;html=1;rounded=0;exitX=0.75;exitY=1;exitDx=0;exitDy=0;entryX=0.353;entryY=0.021;entryDx=0;entryDy=0;entryPerimeter=0;" edge="1" parent="1" source="rFYcgC0ifJ-qKOonMQU6-1" target="xW5rKiIzODdJxgL3xSRl-98">
          <mxGeometry width="50" height="50" relative="1" as="geometry">
            <mxPoint x="470" y="510" as="sourcePoint" />
            <mxPoint x="476" y="560" as="targetPoint" />
          </mxGeometry>
        </mxCell>
        <mxCell id="xW5rKiIzODdJxgL3xSRl-100" value="1" style="edgeLabel;html=1;align=center;verticalAlign=middle;resizable=0;points=[];" vertex="1" connectable="0" parent="xW5rKiIzODdJxgL3xSRl-99">
          <mxGeometry x="-0.0491" y="-1" relative="1" as="geometry">
            <mxPoint as="offset" />
          </mxGeometry>
        </mxCell>
        <mxCell id="xW5rKiIzODdJxgL3xSRl-101" value="" style="endArrow=none;html=1;rounded=0;exitX=0.5;exitY=0;exitDx=0;exitDy=0;entryX=0.5;entryY=1;entryDx=0;entryDy=0;" edge="1" parent="1" source="xW5rKiIzODdJxgL3xSRl-97" target="xW5rKiIzODdJxgL3xSRl-98">
          <mxGeometry width="50" height="50" relative="1" as="geometry">
            <mxPoint x="470" y="510" as="sourcePoint" />
            <mxPoint x="519" y="570" as="targetPoint" />
          </mxGeometry>
        </mxCell>
        <mxCell id="xW5rKiIzODdJxgL3xSRl-102" value="1" style="edgeLabel;html=1;align=center;verticalAlign=middle;resizable=0;points=[];" vertex="1" connectable="0" parent="xW5rKiIzODdJxgL3xSRl-101">
          <mxGeometry x="-0.0491" y="-1" relative="1" as="geometry">
            <mxPoint as="offset" />
          </mxGeometry>
        </mxCell>
        <mxCell id="xW5rKiIzODdJxgL3xSRl-103" value="团购" style="rounded=0;whiteSpace=wrap;html=1;" vertex="1" parent="1">
          <mxGeometry x="237.5" y="320" width="50" height="20" as="geometry" />
        </mxCell>
        <mxCell id="xW5rKiIzODdJxgL3xSRl-104" value="生成" style="rhombus;whiteSpace=wrap;html=1;" vertex="1" parent="1">
          <mxGeometry x="200" y="350" width="55" height="20" as="geometry" />
        </mxCell>
        <mxCell id="xW5rKiIzODdJxgL3xSRl-105" value="" style="endArrow=none;html=1;rounded=0;entryX=0.5;entryY=0;entryDx=0;entryDy=0;exitX=0.5;exitY=1;exitDx=0;exitDy=0;" edge="1" parent="1" source="xW5rKiIzODdJxgL3xSRl-104" target="rFYcgC0ifJ-qKOonMQU6-40">
          <mxGeometry width="50" height="50" relative="1" as="geometry">
            <mxPoint x="218" y="390" as="sourcePoint" />
            <mxPoint x="250" y="410" as="targetPoint" />
          </mxGeometry>
        </mxCell>
        <mxCell id="xW5rKiIzODdJxgL3xSRl-106" value="" style="endArrow=none;html=1;rounded=0;entryX=0.682;entryY=0.179;entryDx=0;entryDy=0;exitX=0.5;exitY=1;exitDx=0;exitDy=0;entryPerimeter=0;" edge="1" parent="1" source="xW5rKiIzODdJxgL3xSRl-103" target="xW5rKiIzODdJxgL3xSRl-104">
          <mxGeometry width="50" height="50" relative="1" as="geometry">
            <mxPoint x="268" y="380" as="sourcePoint" />
            <mxPoint x="250" y="410" as="targetPoint" />
          </mxGeometry>
        </mxCell>
        <mxCell id="xW5rKiIzODdJxgL3xSRl-109" value="" style="endArrow=none;html=1;rounded=0;entryX=0.5;entryY=1;entryDx=0;entryDy=0;exitX=0;exitY=0;exitDx=0;exitDy=0;" edge="1" parent="1" source="xW5rKiIzODdJxgL3xSRl-110" target="xW5rKiIzODdJxgL3xSRl-97">
          <mxGeometry width="50" height="50" relative="1" as="geometry">
            <mxPoint x="570" y="640" as="sourcePoint" />
            <mxPoint x="460" y="570" as="targetPoint" />
          </mxGeometry>
        </mxCell>
        <mxCell id="xW5rKiIzODdJxgL3xSRl-110" value="包含" style="rhombus;whiteSpace=wrap;html=1;" vertex="1" parent="1">
          <mxGeometry x="532.5" y="630" width="55" height="20" as="geometry" />
        </mxCell>
        <mxCell id="xW5rKiIzODdJxgL3xSRl-111" value="广告" style="rounded=0;whiteSpace=wrap;html=1;" vertex="1" parent="1">
          <mxGeometry x="460" y="675" width="50" height="20" as="geometry" />
        </mxCell>
        <mxCell id="xW5rKiIzODdJxgL3xSRl-112" value="系统配置" style="rounded=0;whiteSpace=wrap;html=1;" vertex="1" parent="1">
          <mxGeometry x="462.5" y="650" width="50" height="20" as="geometry" />
        </mxCell>
        <mxCell id="xW5rKiIzODdJxgL3xSRl-113" value="问题" style="rounded=0;whiteSpace=wrap;html=1;" vertex="1" parent="1">
          <mxGeometry x="400" y="650" width="50" height="20" as="geometry" />
        </mxCell>
        <mxCell id="xW5rKiIzODdJxgL3xSRl-114" value="文件存储" style="rounded=0;whiteSpace=wrap;html=1;" vertex="1" parent="1">
          <mxGeometry x="400" y="675" width="50" height="20" as="geometry" />
        </mxCell>
        <mxCell id="xW5rKiIzODdJxgL3xSRl-117" value="" style="endArrow=none;html=1;rounded=0;exitX=0;exitY=0;exitDx=0;exitDy=0;entryX=0.75;entryY=1;entryDx=0;entryDy=0;" edge="1" parent="1" source="xW5rKiIzODdJxgL3xSRl-118" target="rFYcgC0ifJ-qKOonMQU6-2">
          <mxGeometry width="50" height="50" relative="1" as="geometry">
            <mxPoint x="355" y="640" as="sourcePoint" />
            <mxPoint x="340" y="520" as="targetPoint" />
          </mxGeometry>
        </mxCell>
        <mxCell id="xW5rKiIzODdJxgL3xSRl-118" value="属于" style="rhombus;whiteSpace=wrap;html=1;" vertex="1" parent="1">
          <mxGeometry x="358.75" y="600" width="55" height="20" as="geometry" />
        </mxCell>
        <mxCell id="xW5rKiIzODdJxgL3xSRl-119" value="" style="endArrow=none;html=1;rounded=0;entryX=1;entryY=0.5;entryDx=0;entryDy=0;exitX=0;exitY=0.5;exitDx=0;exitDy=0;" edge="1" parent="1" source="xW5rKiIzODdJxgL3xSRl-97" target="xW5rKiIzODdJxgL3xSRl-118">
          <mxGeometry width="50" height="50" relative="1" as="geometry">
            <mxPoint x="373" y="630" as="sourcePoint" />
            <mxPoint x="293" y="530" as="targetPoint" />
          </mxGeometry>
        </mxCell>
        <mxCell id="xW5rKiIzODdJxgL3xSRl-120" value="管理员" style="rounded=0;whiteSpace=wrap;html=1;" vertex="1" parent="1">
          <mxGeometry x="180" y="640" width="50" height="20" as="geometry" />
        </mxCell>
        <mxCell id="xW5rKiIzODdJxgL3xSRl-121" value="角色" style="rounded=0;whiteSpace=wrap;html=1;" vertex="1" parent="1">
          <mxGeometry x="305" y="655" width="50" height="20" as="geometry" />
        </mxCell>
        <mxCell id="xW5rKiIzODdJxgL3xSRl-122" value="拥有" style="rhombus;whiteSpace=wrap;html=1;" vertex="1" parent="1">
          <mxGeometry x="235" y="670" width="55" height="20" as="geometry" />
        </mxCell>
        <mxCell id="xW5rKiIzODdJxgL3xSRl-123" value="" style="endArrow=none;html=1;rounded=0;entryX=1;entryY=0.5;entryDx=0;entryDy=0;exitX=0;exitY=0.5;exitDx=0;exitDy=0;" edge="1" parent="1" source="xW5rKiIzODdJxgL3xSRl-122" target="xW5rKiIzODdJxgL3xSRl-120">
          <mxGeometry width="50" height="50" relative="1" as="geometry">
            <mxPoint x="254" y="585" as="sourcePoint" />
            <mxPoint x="240" y="600" as="targetPoint" />
          </mxGeometry>
        </mxCell>
        <mxCell id="xW5rKiIzODdJxgL3xSRl-124" value="" style="endArrow=none;html=1;rounded=0;entryX=0;entryY=0.5;entryDx=0;entryDy=0;exitX=1;exitY=0.5;exitDx=0;exitDy=0;" edge="1" parent="1" source="xW5rKiIzODdJxgL3xSRl-122" target="xW5rKiIzODdJxgL3xSRl-121">
          <mxGeometry width="50" height="50" relative="1" as="geometry">
            <mxPoint x="200" y="670" as="sourcePoint" />
            <mxPoint x="190" y="670" as="targetPoint" />
          </mxGeometry>
        </mxCell>
        <mxCell id="xW5rKiIzODdJxgL3xSRl-125" value="包含" style="rhombus;whiteSpace=wrap;html=1;" vertex="1" parent="1">
          <mxGeometry x="318.75" y="630" width="55" height="20" as="geometry" />
        </mxCell>
        <mxCell id="xW5rKiIzODdJxgL3xSRl-126" value="" style="endArrow=none;html=1;rounded=0;entryX=1;entryY=1;entryDx=0;entryDy=0;exitX=1;exitY=0;exitDx=0;exitDy=0;" edge="1" parent="1" source="xW5rKiIzODdJxgL3xSRl-110" target="xW5rKiIzODdJxgL3xSRl-97">
          <mxGeometry width="50" height="50" relative="1" as="geometry">
            <mxPoint x="588" y="640" as="sourcePoint" />
            <mxPoint x="570" y="620" as="targetPoint" />
          </mxGeometry>
        </mxCell>
        <mxCell id="xW5rKiIzODdJxgL3xSRl-127" value="" style="endArrow=none;html=1;rounded=0;entryX=1;entryY=0.5;entryDx=0;entryDy=0;exitX=0;exitY=0;exitDx=0;exitDy=0;" edge="1" parent="1" source="xW5rKiIzODdJxgL3xSRl-125" target="rFYcgC0ifJ-qKOonMQU6-24">
          <mxGeometry width="50" height="50" relative="1" as="geometry">
            <mxPoint x="574" y="645" as="sourcePoint" />
            <mxPoint x="570" y="620" as="targetPoint" />
          </mxGeometry>
        </mxCell>
        <mxCell id="xW5rKiIzODdJxgL3xSRl-128" value="" style="endArrow=none;html=1;rounded=0;entryX=1;entryY=0;entryDx=0;entryDy=0;exitX=0.5;exitY=0;exitDx=0;exitDy=0;" edge="1" parent="1" source="xW5rKiIzODdJxgL3xSRl-125" target="rFYcgC0ifJ-qKOonMQU6-24">
          <mxGeometry width="50" height="50" relative="1" as="geometry">
            <mxPoint x="329" y="635" as="sourcePoint" />
            <mxPoint x="320" y="630" as="targetPoint" />
          </mxGeometry>
        </mxCell>
        <mxCell id="xW5rKiIzODdJxgL3xSRl-130" value="用户优惠" style="rounded=0;whiteSpace=wrap;html=1;" vertex="1" parent="1">
          <mxGeometry x="452.5" y="340" width="52.5" height="30" as="geometry" />
        </mxCell>
        <mxCell id="xW5rKiIzODdJxgL3xSRl-132" value="领取" style="rhombus;whiteSpace=wrap;html=1;" vertex="1" parent="1">
          <mxGeometry x="470" y="300" width="55" height="20" as="geometry" />
        </mxCell>
        <mxCell id="xW5rKiIzODdJxgL3xSRl-136" value="拥有" style="rhombus;whiteSpace=wrap;html=1;" vertex="1" parent="1">
          <mxGeometry x="318.75" y="680" width="55" height="20" as="geometry" />
        </mxCell>
        <mxCell id="xW5rKiIzODdJxgL3xSRl-137" value="权限" style="rounded=0;whiteSpace=wrap;html=1;" vertex="1" parent="1">
          <mxGeometry x="265" y="700" width="50" height="20" as="geometry" />
        </mxCell>
        <mxCell id="xW5rKiIzODdJxgL3xSRl-138" value="" style="endArrow=none;html=1;rounded=0;entryX=0.5;entryY=1;entryDx=0;entryDy=0;exitX=0;exitY=0;exitDx=0;exitDy=0;" edge="1" parent="1" source="xW5rKiIzODdJxgL3xSRl-136" target="xW5rKiIzODdJxgL3xSRl-121">
          <mxGeometry width="50" height="50" relative="1" as="geometry">
            <mxPoint x="300" y="690" as="sourcePoint" />
            <mxPoint x="315" y="675" as="targetPoint" />
          </mxGeometry>
        </mxCell>
        <mxCell id="xW5rKiIzODdJxgL3xSRl-139" value="" style="endArrow=none;html=1;rounded=0;entryX=1;entryY=0;entryDx=0;entryDy=0;exitX=0;exitY=1;exitDx=0;exitDy=0;" edge="1" parent="1" source="xW5rKiIzODdJxgL3xSRl-136" target="xW5rKiIzODdJxgL3xSRl-137">
          <mxGeometry width="50" height="50" relative="1" as="geometry">
            <mxPoint x="356" y="690" as="sourcePoint" />
            <mxPoint x="340" y="685" as="targetPoint" />
          </mxGeometry>
        </mxCell>
        <mxCell id="xW5rKiIzODdJxgL3xSRl-141" value="属于" style="rhombus;whiteSpace=wrap;html=1;" vertex="1" parent="1">
          <mxGeometry x="335" y="490" width="55" height="20" as="geometry" />
        </mxCell>
        <mxCell id="xW5rKiIzODdJxgL3xSRl-142" value="" style="endArrow=none;html=1;rounded=0;entryX=0;entryY=1;entryDx=0;entryDy=0;exitX=1;exitY=0.5;exitDx=0;exitDy=0;" edge="1" parent="1" source="rFYcgC0ifJ-qKOonMQU6-2" target="xW5rKiIzODdJxgL3xSRl-141">
          <mxGeometry width="50" height="50" relative="1" as="geometry">
            <mxPoint x="325" y="520" as="sourcePoint" />
            <mxPoint x="333" y="450" as="targetPoint" />
          </mxGeometry>
        </mxCell>
        <mxCell id="xW5rKiIzODdJxgL3xSRl-145" value="" style="endArrow=none;html=1;rounded=0;entryX=0.5;entryY=1;entryDx=0;entryDy=0;exitX=0;exitY=0;exitDx=0;exitDy=0;" edge="1" parent="1" source="rFYcgC0ifJ-qKOonMQU6-27" target="xW5rKiIzODdJxgL3xSRl-141">
          <mxGeometry width="50" height="50" relative="1" as="geometry">
            <mxPoint x="345" y="530" as="sourcePoint" />
            <mxPoint x="359" y="515" as="targetPoint" />
          </mxGeometry>
        </mxCell>
        <mxCell id="xW5rKiIzODdJxgL3xSRl-146" value="包含" style="rhombus;whiteSpace=wrap;html=1;" vertex="1" parent="1">
          <mxGeometry x="620" y="390" width="55" height="20" as="geometry" />
        </mxCell>
        <mxCell id="xW5rKiIzODdJxgL3xSRl-147" value="区域" style="rounded=0;whiteSpace=wrap;html=1;" vertex="1" parent="1">
          <mxGeometry x="660" y="430" width="40" height="20" as="geometry" />
        </mxCell>
        <mxCell id="xW5rKiIzODdJxgL3xSRl-148" value="" style="endArrow=none;html=1;rounded=0;entryX=0;entryY=0.5;entryDx=0;entryDy=0;exitX=1;exitY=0.5;exitDx=0;exitDy=0;" edge="1" parent="1" source="rFYcgC0ifJ-qKOonMQU6-25" target="xW5rKiIzODdJxgL3xSRl-146">
          <mxGeometry width="50" height="50" relative="1" as="geometry">
            <mxPoint x="561" y="455" as="sourcePoint" />
            <mxPoint x="610" y="450" as="targetPoint" />
          </mxGeometry>
        </mxCell>
        <mxCell id="xW5rKiIzODdJxgL3xSRl-149" value="" style="endArrow=none;html=1;rounded=0;entryX=0.369;entryY=0.121;entryDx=0;entryDy=0;exitX=1;exitY=1;exitDx=0;exitDy=0;entryPerimeter=0;" edge="1" parent="1" source="xW5rKiIzODdJxgL3xSRl-146" target="xW5rKiIzODdJxgL3xSRl-147">
          <mxGeometry width="50" height="50" relative="1" as="geometry">
            <mxPoint x="615" y="410" as="sourcePoint" />
            <mxPoint x="630" y="410" as="targetPoint" />
          </mxGeometry>
        </mxCell>
        <mxCell id="xW5rKiIzODdJxgL3xSRl-150" value="通知" style="rounded=0;whiteSpace=wrap;html=1;" vertex="1" parent="1">
          <mxGeometry x="180" y="740" width="50" height="20" as="geometry" />
        </mxCell>
        <mxCell id="xW5rKiIzODdJxgL3xSRl-151" value="查看" style="rhombus;whiteSpace=wrap;html=1;" vertex="1" parent="1">
          <mxGeometry x="170" y="665" width="55" height="20" as="geometry" />
        </mxCell>
        <mxCell id="xW5rKiIzODdJxgL3xSRl-152" value="" style="endArrow=none;html=1;rounded=0;entryX=0.5;entryY=1;entryDx=0;entryDy=0;exitX=0.5;exitY=0;exitDx=0;exitDy=0;" edge="1" parent="1" source="xW5rKiIzODdJxgL3xSRl-151" target="xW5rKiIzODdJxgL3xSRl-120">
          <mxGeometry width="50" height="50" relative="1" as="geometry">
            <mxPoint x="300" y="690" as="sourcePoint" />
            <mxPoint x="315" y="675" as="targetPoint" />
          </mxGeometry>
        </mxCell>
        <mxCell id="xW5rKiIzODdJxgL3xSRl-153" value="" style="endArrow=none;html=1;rounded=0;entryX=0.5;entryY=1;entryDx=0;entryDy=0;exitX=0.5;exitY=0;exitDx=0;exitDy=0;" edge="1" parent="1" source="xW5rKiIzODdJxgL3xSRl-150" target="xW5rKiIzODdJxgL3xSRl-151">
          <mxGeometry width="50" height="50" relative="1" as="geometry">
            <mxPoint x="213" y="685" as="sourcePoint" />
            <mxPoint x="215" y="670" as="targetPoint" />
          </mxGeometry>
        </mxCell>
        <mxCell id="xW5rKiIzODdJxgL3xSRl-155" value="关键词" style="rounded=0;whiteSpace=wrap;html=1;" vertex="1" parent="1">
          <mxGeometry x="517.5" y="660" width="50" height="20" as="geometry" />
        </mxCell>
        <mxCell id="xW5rKiIzODdJxgL3xSRl-157" value="日志" style="rounded=0;whiteSpace=wrap;html=1;" vertex="1" parent="1">
          <mxGeometry x="120" y="600" width="50" height="20" as="geometry" />
        </mxCell>
        <mxCell id="xW5rKiIzODdJxgL3xSRl-158" value="查看" style="rhombus;whiteSpace=wrap;html=1;" vertex="1" parent="1">
          <mxGeometry x="175" y="610" width="55" height="20" as="geometry" />
        </mxCell>
        <mxCell id="xW5rKiIzODdJxgL3xSRl-160" value="" style="endArrow=none;html=1;rounded=0;entryX=1;entryY=0.5;entryDx=0;entryDy=0;exitX=0;exitY=0;exitDx=0;exitDy=0;" edge="1" parent="1" source="xW5rKiIzODdJxgL3xSRl-158" target="xW5rKiIzODdJxgL3xSRl-157">
          <mxGeometry width="50" height="50" relative="1" as="geometry">
            <mxPoint x="254" y="585" as="sourcePoint" />
            <mxPoint x="240" y="600" as="targetPoint" />
          </mxGeometry>
        </mxCell>
        <mxCell id="xW5rKiIzODdJxgL3xSRl-161" value="" style="endArrow=none;html=1;rounded=0;entryX=0.5;entryY=0;entryDx=0;entryDy=0;exitX=0.5;exitY=1;exitDx=0;exitDy=0;" edge="1" parent="1" source="xW5rKiIzODdJxgL3xSRl-158" target="xW5rKiIzODdJxgL3xSRl-120">
          <mxGeometry width="50" height="50" relative="1" as="geometry">
            <mxPoint x="199" y="625" as="sourcePoint" />
            <mxPoint x="180" y="620" as="targetPoint" />
          </mxGeometry>
        </mxCell>
        <mxCell id="xW5rKiIzODdJxgL3xSRl-162" value="订单商品" style="rounded=0;whiteSpace=wrap;html=1;" vertex="1" parent="1">
          <mxGeometry x="308.75" y="430" width="52.5" height="20" as="geometry" />
        </mxCell>
        <mxCell id="xW5rKiIzODdJxgL3xSRl-163" value="" style="endArrow=none;html=1;rounded=0;entryX=0.5;entryY=1;entryDx=0;entryDy=0;exitX=0.5;exitY=0;exitDx=0;exitDy=0;" edge="1" parent="1" source="xW5rKiIzODdJxgL3xSRl-92" target="xW5rKiIzODdJxgL3xSRl-162">
          <mxGeometry width="50" height="50" relative="1" as="geometry">
            <mxPoint x="389" y="420" as="sourcePoint" />
            <mxPoint x="355" y="380" as="targetPoint" />
          </mxGeometry>
        </mxCell>
        <mxCell id="xW5rKiIzODdJxgL3xSRl-164" value="包含" style="rhombus;whiteSpace=wrap;html=1;" vertex="1" parent="1">
          <mxGeometry x="302.5" y="380" width="55" height="20" as="geometry" />
        </mxCell>
        <mxCell id="xW5rKiIzODdJxgL3xSRl-165" value="" style="endArrow=none;html=1;rounded=0;entryX=0.5;entryY=1;entryDx=0;entryDy=0;exitX=0.5;exitY=0;exitDx=0;exitDy=0;" edge="1" parent="1" source="xW5rKiIzODdJxgL3xSRl-162" target="xW5rKiIzODdJxgL3xSRl-164">
          <mxGeometry width="50" height="50" relative="1" as="geometry">
            <mxPoint x="340" y="410" as="sourcePoint" />
            <mxPoint x="345" y="380" as="targetPoint" />
          </mxGeometry>
        </mxCell>
        <mxCell id="xW5rKiIzODdJxgL3xSRl-170" value="" style="endArrow=none;html=1;rounded=0;entryX=0.5;entryY=0;entryDx=0;entryDy=0;exitX=0;exitY=1;exitDx=0;exitDy=0;" edge="1" parent="1" source="xW5rKiIzODdJxgL3xSRl-132" target="xW5rKiIzODdJxgL3xSRl-130">
          <mxGeometry width="50" height="50" relative="1" as="geometry">
            <mxPoint x="593" y="320" as="sourcePoint" />
            <mxPoint x="463" y="290" as="targetPoint" />
          </mxGeometry>
        </mxCell>
        <mxCell id="xW5rKiIzODdJxgL3xSRl-171" value="" style="endArrow=none;html=1;rounded=0;entryX=1;entryY=1;entryDx=0;entryDy=0;exitX=0;exitY=0.5;exitDx=0;exitDy=0;" edge="1" parent="1" source="rFYcgC0ifJ-qKOonMQU6-34" target="xW5rKiIzODdJxgL3xSRl-132">
          <mxGeometry width="50" height="50" relative="1" as="geometry">
            <mxPoint x="494" y="315" as="sourcePoint" />
            <mxPoint x="481" y="330" as="targetPoint" />
          </mxGeometry>
        </mxCell>
        <mxCell id="xW5rKiIzODdJxgL3xSRl-174" value="1" style="edgeLabel;html=1;align=center;verticalAlign=middle;resizable=0;points=[];" vertex="1" connectable="0" parent="xW5rKiIzODdJxgL3xSRl-171">
          <mxGeometry x="0.0968" y="1" relative="1" as="geometry">
            <mxPoint as="offset" />
          </mxGeometry>
        </mxCell>
      </root>
    </mxGraphModel>
  </diagram>
</mxfile>
